<svg id="Capa_2" data-name="Capa 2" xmlns="http://www.w3.org/2000/svg" width="92.704" height="128.215" viewBox="0 0 92.704 128.215">
  <g id="Layer_1" data-name="Layer 1">
    <path id="Trazado_945" data-name="Trazado 945" d="M0,0H92.7V128.215H0Z" fill="#f1b634"/>
    <path id="Trazado_946" data-name="Trazado 946" d="M49.019,57V51.57L44.21,59.522Z" transform="translate(-16.418 -19.152)" fill="#55565a"/>
    <path id="Trazado_947" data-name="Trazado 947" d="M51.86,57V51.57l4.815,7.952Z" transform="translate(-19.259 -19.152)" fill="#fff"/>
    <path id="Trazado_948" data-name="Trazado 948" d="M36.236,70.55H32.464v2.376a4.657,4.657,0,0,1,.767.057,3,3,0,0,1,2.515,2.25,19.085,19.085,0,0,0,.446-4.683M13.417,72.895a3.131,3.131,0,0,1,2.691,3.464V93.922q1.272-.251,2.515-.629V81.645l6.77,8.631a24.34,24.34,0,0,0,5.2-4.092L18.157,70.55H12.65v2.288h.22a2.207,2.207,0,0,1,.547.05" transform="translate(-4.698 -26.2)" fill="#55565a"/>
    <path id="Trazado_949" data-name="Trazado 949" d="M38.681,70.55a25.453,25.453,0,0,1-2.735,11.944V92.91l-4.042-5.1a20.99,20.99,0,0,1-5.532,3.7l8.681,11.076h3.42V76.258a3.092,3.092,0,0,1,2.678-3.275,7.858,7.858,0,0,1,.981-.057V70.55Zm-16.6,29.766a4.657,4.657,0,0,1-.767-.057A3.127,3.127,0,0,1,18.628,96.8v-3c-.8.126-1.647.22-2.515.3V96.8a3.14,3.14,0,0,1-2.691,3.464,4.657,4.657,0,0,1-.767.057V102.6h9.429v-2.288Zm-2.8,18.4c0,2.338-1.2,3.652-3.313,3.652s-3.313-1.314-3.313-3.652v-4.231h1.169v4.231c0,1.641.779,2.515,2.144,2.515s2.137-.893,2.137-2.515v-4.231h1.176Zm7.493,3.539-4.413-5.771v5.771H21.187v-7.77h1.069l4.407,5.8v-5.8h1.176v7.77Zm3.338-7.77h1.169v7.77H30.107Zm5.563,7.77-3.193-7.77h1.308l2.269,5.658a8.021,8.021,0,0,1,.3.956c.088-.321.189-.629.289-.956l2.32-5.658h1.257l-3.193,7.77Zm5.746,0v-7.77h5.249v1.094H42.592v2.232h3.552V118.9H42.592v2.257h4.187v1.094H41.416Zm13.3,0H53.46l-1.974-2.445H49.651v2.445H48.475v-7.77h2.867c2.049,0,3.2.968,3.2,2.684a2.514,2.514,0,0,1-1.886,2.483l2.074,2.515Zm-3.351-3.539c1.257,0,1.974-.566,1.974-1.546s-.71-1.578-1.974-1.59H49.651v3.143Zm9.417-2.8a6.286,6.286,0,0,0-2.515-.522c-.817,0-1.257.471-1.257.943,0,.918.629,1.031,2.074,1.5s2.269.905,2.269,2.294a2.219,2.219,0,0,1-2.515,2.238,7.594,7.594,0,0,1-3.413-.968l.459-.918a7.361,7.361,0,0,0,2.9.817c.817,0,1.352-.346,1.352-.993,0-.842-.434-1.106-2.068-1.59-1.257-.371-2.276-.729-2.276-2.269,0-1.257.956-2.087,2.515-2.087a7.5,7.5,0,0,1,2.841.629Zm2.257-1.427H64.21v7.77H63.041Zm5.884,0c2.7,0,4.218,1.377,4.218,3.822s-1.515,3.948-4.218,3.948H66.479v-7.77Zm0,6.676c1.936,0,3.017-1.031,3.017-2.854s-1.081-2.728-3.017-2.728H67.667v5.582Zm5.834,1.094H73.5l3.237-7.77H78.3l3.231,7.77H80.278l-.754-1.836H75.513Zm3.049-6.016a8.66,8.66,0,0,1-.3-.924,8.66,8.66,0,0,1-.3.924l-1.257,3.1H79.1Zm7.424-1.754c2.7,0,4.218,1.377,4.218,3.822s-1.515,3.948-4.218,3.948H82.786v-7.77Zm0,6.676c1.936,0,3.024-1.031,3.024-2.854s-1.088-2.728-3.024-2.728H83.974v5.582ZM15.1,138.725c2.7,0,4.218,1.377,4.218,3.822s-1.515,3.948-4.218,3.948H12.65v-7.77Zm0,6.676c1.936,0,3.017-1.037,3.017-2.854s-1.081-2.728-3.017-2.728H13.838V145.4Zm5.821,1.069V138.7h5.249v1.094H22.092v2.232h3.552v1.094H22.092v2.25h4.193v1.1H20.916Zm7.059,0V138.7h1.176v6.645h3.809v1.125Zm15.1,0L38.669,140.7v5.771H37.493V138.7h1.069l4.413,5.8v-5.8h1.169v7.77H43.076Zm10.14-3.872c0,2.546-1.364,3.985-3.709,3.985s-3.69-1.44-3.69-3.985,1.364-4.03,3.69-4.03,3.709,1.44,3.709,4.03m-1.2,0c0-1.924-.9-2.929-2.515-2.929s-2.515,1.006-2.515,2.929.905,2.892,2.515,2.892,2.515-.993,2.515-2.892m9.046,3.872H59.8l-1.974-2.445H55.994v2.445H54.818v-7.745h2.867c2.056,0,3.2.968,3.2,2.684A2.515,2.515,0,0,1,59,143.923l2.074,2.515Zm-3.351-3.545c1.257,0,1.98-.559,1.98-1.54s-.717-1.578-1.98-1.59H55.994v3.143Zm7.418-3.131v6.676H63.959v-6.676H61.243V138.7h6.6v1.094Zm3.747,6.676V138.7h5.249v1.094h-4.08v2.232H73.6v1.094H70.044v2.25h4.193v1.1H68.874ZM15.341,126.586c2.037,0,3.181.993,3.181,2.779s-1.132,2.766-3.143,2.766H13.807v2.225H12.65v-7.77Zm.038,4.444c1.257,0,2.012-.6,2-1.666s-.742-1.678-2.037-1.678H13.819v3.344Zm10.938,3.325H25.059l-1.974-2.445H21.25v2.445H20.074v-7.77h2.854c2.056,0,3.2.968,3.2,2.691a2.514,2.514,0,0,1-1.886,2.483l2.074,2.515Zm-3.351-3.539c1.257,0,1.98-.559,1.98-1.54s-.717-1.578-1.98-1.59H21.25v3.143Zm4.847-4.231h1.169v7.77H27.812Zm5.614,7.77-3.193-7.77H31.54l2.269,5.658a8.4,8.4,0,0,1,.3.956c.088-.321.189-.629.289-.956l2.32-5.658h1.257l-3.212,7.77Zm5.28,0H37.449l3.237-7.77h1.565l3.237,7.77H44.232l-.754-1.836H39.455Zm3.043-6.01c-.138-.383-.233-.691-.3-.93-.063.239-.151.547-.289.93l-1.257,3.093H43.05Zm7.424-1.76c2.7,0,4.218,1.377,4.218,3.822s-1.515,3.948-4.218,3.948H46.728v-7.77Zm0,6.676c1.936,0,3.024-1.031,3.024-2.854s-1.088-2.722-3.024-2.722H47.916v5.576Zm5.878,1.094H53.794l3.237-7.77H58.6l3.237,7.77H60.577l-.748-1.836H55.8Zm3.043-6.01c-.138-.383-.226-.691-.3-.93-.063.239-.151.547-.289.93l-1.257,3.093h3.143ZM12.65,108.356h76.8v.377H12.65Z" transform="translate(-4.698 -26.2)" fill="#55565a"/>
  </g>
</svg>
